<?xml version="1.0" encoding="UTF-8" standalone="no"?>
<!-- Created with Inkscape (http://www.inkscape.org/) -->

<svg
   xmlns:dc="http://purl.org/dc/elements/1.1/"
   xmlns:cc="http://creativecommons.org/ns#"
   xmlns:rdf="http://www.w3.org/1999/02/22-rdf-syntax-ns#"
   xmlns:svg="http://www.w3.org/2000/svg"
   xmlns="http://www.w3.org/2000/svg"
   xmlns:xlink="http://www.w3.org/1999/xlink"
   xmlns:sodipodi="http://sodipodi.sourceforge.net/DTD/sodipodi-0.dtd"
   xmlns:inkscape="http://www.inkscape.org/namespaces/inkscape"
   width="210mm"
   height="297mm"
   viewBox="0 0 210 297"
   version="1.1"
   id="svg8"
   inkscape:version="0.92.4 (5da689c313, 2019-01-14)"
   sodipodi:docname="Linux.svg">
  <defs
     id="defs2">
    <linearGradient
       inkscape:collect="always"
       id="linearGradient1842">
      <stop
         style="stop-color:#ffffff;stop-opacity:1;"
         offset="0"
         id="stop1838" />
      <stop
         style="stop-color:#ffffff;stop-opacity:0;"
         offset="1"
         id="stop1840" />
    </linearGradient>
    <inkscape:path-effect
       bendpath4-nodetypes="cc"
       bendpath2-nodetypes="cc"
       bendpath4="m 153.14544,111.24767 -8.55262,76.43909"
       bendpath3="m 153.14544,186.08314 h 27.79603"
       bendpath2="m 178.26877,120.06756 -15.36765,65.26067"
       bendpath1="m 153.14544,111.24767 h 27.79603"
       xx="true"
       yy="true"
       is_visible="true"
       id="path-effect1191"
       effect="envelope" />
    <inkscape:path-effect
       effect="envelope"
       id="path-effect1187"
       is_visible="true"
       yy="true"
       xx="true"
       bendpath1="m 153.14544,111.24767 h 27.79603"
       bendpath2="m 178.26877,120.06756 -15.36765,65.26067"
       bendpath3="m 153.14544,186.08314 h 27.79603"
       bendpath4="m 153.14544,111.24767 -8.55262,76.43909"
       bendpath2-nodetypes="cc"
       bendpath4-nodetypes="cc" />
    <inkscape:path-effect
       effect="envelope"
       id="path-effect1021"
       is_visible="true"
       yy="true"
       xx="true"
       bendpath1="m 247.44509,124.8319 h 23.34547"
       bendpath2="m 267.31606,132.31545 -9.08717,63.70317"
       bendpath3="m 247.44509,195.48408 h 23.34547"
       bendpath4="m 247.44509,124.8319 -10.42351,70.38491"
       bendpath2-nodetypes="cc"
       bendpath4-nodetypes="cc" />
    <inkscape:path-effect
       bendpath2-nodetypes="cc"
       bendpath4-nodetypes="cc"
       bendpath4="m 245.26402,166.93368 -10.20536,66.23085"
       bendpath3="M 245.26402,233.92048 H 272.9413"
       bendpath2="m 272.9413,166.93368 -18.52083,67.36478"
       bendpath1="M 245.26402,166.93368 H 272.9413"
       xx="true"
       yy="true"
       is_visible="true"
       id="path-effect1012"
       effect="envelope" />
    <inkscape:path-effect
       effect="envelope"
       id="path-effect1008"
       is_visible="true"
       yy="true"
       xx="true"
       bendpath1="M 245.26402,166.93368 H 272.9413"
       bendpath2="m 272.9413,166.93368 -18.52083,67.36478"
       bendpath3="M 245.26402,233.92048 H 272.9413"
       bendpath4="m 245.26402,166.93368 -10.20536,66.23085"
       bendpath4-nodetypes="cc"
       bendpath2-nodetypes="cc" />
    <clipPath
       clipPathUnits="userSpaceOnUse"
       id="clipPath962">
      <path
         id="path964"
         d="m 307.23033,196.09862 a 6.321402,9.9963576 0 0 0 -4.0504,2.33371 c -2.68764,0.0375 -5.74776,1.10299 -7.84654,3.46697 -3.78243,4.26037 -5.48367,6.25381 -3.67522,9.19272 1.4854,1.86516 5.10839,1.82364 10.00559,-0.27698 a 6.321402,9.9963576 0 0 0 5.56657,5.27616 6.321402,9.9963576 0 0 0 5.01986,-3.94136 c 4.03344,2.93896 7.35375,3.74216 9.17617,2.34507 2.46536,-2.41445 1.29651,-4.7607 -1.34358,-9.80922 -1.75802,-3.36178 -5.3114,-5.24538 -8.31061,-5.54281 a 6.321402,9.9963576 0 0 0 -4.54184,-3.04426 z"
         style="opacity:1;vector-effect:none;fill:#ff7e26;fill-opacity:1;fill-rule:evenodd;stroke:none;stroke-width:0.41931486;stroke-linecap:butt;stroke-linejoin:miter;stroke-miterlimit:4;stroke-dasharray:none;stroke-dashoffset:0;stroke-opacity:1"
         inkscape:connector-curvature="0" />
    </clipPath>
    <clipPath
       clipPathUnits="userSpaceOnUse"
       id="clipPath1090">
      <rect
         style="opacity:0.54799996;fill:#ff7f2a;fill-opacity:1;fill-rule:evenodd;stroke:none;stroke-width:0.19278798;stroke-miterlimit:4;stroke-dasharray:none;stroke-opacity:1"
         id="rect1092"
         width="43.183781"
         height="42.616814"
         x="83.24926"
         y="127.1942" />
    </clipPath>
    <clipPath
       clipPathUnits="userSpaceOnUse"
       id="clipPath1553">
      <rect
         style="opacity:0.38500001;fill:#ffb380;fill-opacity:0.90980392;fill-rule:evenodd;stroke:none;stroke-width:0.19458546;stroke-miterlimit:4;stroke-dasharray:none;stroke-opacity:1"
         id="rect1555"
         width="42.362221"
         height="42.62949"
         x="83.521729"
         y="127.55111" />
    </clipPath>
    <clipPath
       clipPathUnits="userSpaceOnUse"
       id="clipPath1570">
      <rect
         style="opacity:0.38500001;fill:#ffb380;fill-opacity:0.90980392;fill-rule:evenodd;stroke:none;stroke-width:0.19412933;stroke-miterlimit:4;stroke-dasharray:none;stroke-opacity:1"
         id="rect1572"
         width="42.495857"
         height="42.963577"
         x="83.521729"
         y="127.08339" />
    </clipPath>
    <filter
       inkscape:collect="always"
       style="color-interpolation-filters:sRGB"
       id="filter1674"
       x="-0.10435116"
       width="1.2087023"
       y="-0.24520772"
       height="1.4904154">
      <feGaussianBlur
         inkscape:collect="always"
         stdDeviation="7.582523"
         id="feGaussianBlur1676" />
    </filter>
    <filter
       inkscape:collect="always"
       style="color-interpolation-filters:sRGB"
       id="filter1686"
       x="-0.08198587"
       width="1.1639717"
       y="-0.28360373"
       height="1.5672075">
      <feGaussianBlur
         inkscape:collect="always"
         stdDeviation="6.4385724"
         id="feGaussianBlur1688" />
    </filter>
    <clipPath
       clipPathUnits="userSpaceOnUse"
       id="clipPath1696">
      <path
         inkscape:connector-curvature="0"
         id="path1698"
         d="m 536.89245,220.88109 a 11.202318,17.438921 0 0 0 -4.67876,1.70222 c -2.55805,0.48315 -5.12101,1.70755 -7.32462,3.89434 -11.31409,11.22745 -13.6869,12.98123 -11.17918,18.4304 2.00454,4.3557 5.94186,3.72824 13.70976,2.37866 a 11.202318,17.438921 0 0 0 9.633,8.47132 11.202318,17.438921 0 0 0 9.26767,-7.7494 c 7.20659,5.16981 10.62731,7.87395 14.27303,5.50354 4.29437,-2.79217 2.85562,-5.16717 -2.91508,-18.56941 -2.48205,-5.76454 -8.29961,-8.93213 -13.07518,-9.41958 a 11.202318,17.438921 0 0 0 -7.71064,-4.64209 z"
         style="opacity:1;vector-effect:none;fill:#ff6600;fill-opacity:1;fill-rule:evenodd;stroke:none;stroke-width:0.38494685;stroke-linecap:butt;stroke-linejoin:miter;stroke-miterlimit:4;stroke-dasharray:none;stroke-dashoffset:0;stroke-opacity:1" />
    </clipPath>
    <filter
       inkscape:collect="always"
       style="color-interpolation-filters:sRGB"
       id="filter1756"
       x="-0.088939409"
       width="1.1778788"
       y="-0.067296579"
       height="1.1345932">
      <feGaussianBlur
         inkscape:collect="always"
         stdDeviation="3.7511029"
         id="feGaussianBlur1758" />
    </filter>
    <filter
       inkscape:collect="always"
       style="color-interpolation-filters:sRGB"
       id="filter1760"
       x="-0.088939152"
       width="1.1778783"
       y="-0.090145108"
       height="1.1802902">
      <feGaussianBlur
         inkscape:collect="always"
         stdDeviation="3.7511029"
         id="feGaussianBlur1762" />
    </filter>
    <filter
       inkscape:collect="always"
       style="color-interpolation-filters:sRGB"
       id="filter1785"
       x="-0.048568852"
       width="1.0971377"
       y="-0.052374634"
       height="1.1047493">
      <feGaussianBlur
         inkscape:collect="always"
         stdDeviation="4.2205588"
         id="feGaussianBlur1787" />
    </filter>
    <clipPath
       clipPathUnits="userSpaceOnUse"
       id="clipPath1791">
      <path
         sodipodi:nodetypes="ccccsscccccccscccccccscccc"
         inkscape:connector-curvature="0"
         id="path1793"
         d="m 564.42507,43.646947 c -29.58441,0.316765 -53.34069,24.50075 -53.12958,54.086104 4.57187,27.021499 -7.14396,40.345619 -24.66361,60.821099 0,0 -4.54393,6.28128 -9.22115,8.95397 -4.67723,2.6727 -14.19868,6.27189 -15.61611,8.82323 -1.4174,2.55134 -2.0787,4.62977 -0.47231,6.70864 1.6064,2.07886 7.74851,3.68527 9.92188,4.63021 2.17337,0.94495 15.49702,2.55162 17.19792,2.36264 1.70087,-0.18899 9.26047,-2.45692 10.67789,-3.40186 1.4174,-0.94494 1.41719,-0.85067 2.36212,-1.60662 0.0654,-0.0523 0.23506,-0.19937 0.36277,-0.30851 -0.008,55.63419 17.21768,56.4671 37.57393,56.35264 9.75373,-0.0548 18.82312,1.38511 25.58087,-4.00183 6.75775,5.38686 15.82719,3.94698 25.58087,4.00183 20.3563,0.11446 37.58234,-0.71846 37.57393,-56.35315 0.128,0.10938 0.29776,0.2566 0.3633,0.30902 0.94493,0.75595 0.94472,0.66168 2.36212,1.60662 1.41742,0.94494 8.97702,3.21287 10.67789,3.40186 1.7009,0.18898 15.02458,-1.41769 17.19792,-2.36264 2.17337,-0.94494 8.31548,-2.55135 9.92188,-4.63021 1.60641,-2.07887 0.94509,-4.1573 -0.47231,-6.70864 -1.41743,-2.55134 -10.93941,-6.15053 -15.61664,-8.82323 -4.6772,-2.67269 -9.22062,-8.95397 -9.22062,-8.95397 -21.1746,-19.40688 -24.88367,-36.42846 -24.66205,-61.204536 l -0.006,-0.766881 C 618.27733,67.000064 594.00916,43.330603 564.42517,43.646947 Z"
         style="opacity:1;vector-effect:none;fill:#000000;fill-opacity:1;fill-rule:evenodd;stroke:none;stroke-width:0.28087789;stroke-linecap:butt;stroke-linejoin:miter;stroke-miterlimit:4;stroke-dasharray:none;stroke-dashoffset:0;stroke-opacity:1" />
    </clipPath>
    <filter
       inkscape:collect="always"
       style="color-interpolation-filters:sRGB"
       id="filter1808"
       x="-0.032657054"
       width="1.0653141"
       y="-0.037243935"
       height="1.0744879">
      <feGaussianBlur
         inkscape:collect="always"
         stdDeviation="2.8440795"
         id="feGaussianBlur1810" />
    </filter>
    <clipPath
       clipPathUnits="userSpaceOnUse"
       id="clipPath1814">
      <path
         sodipodi:nodetypes="ccccsscccccccscccccccscccc"
         inkscape:connector-curvature="0"
         id="path1816"
         d="m 564.42507,43.646947 c -29.58441,0.316765 -53.34069,24.50075 -53.12958,54.086104 4.57187,27.021499 -7.14396,40.345619 -24.66361,60.821099 0,0 -4.54393,6.28128 -9.22115,8.95397 -4.67723,2.6727 -14.19868,6.27189 -15.61611,8.82323 -1.4174,2.55134 -2.0787,4.62977 -0.47231,6.70864 1.6064,2.07886 7.74851,3.68527 9.92188,4.63021 2.17337,0.94495 15.49702,2.55162 17.19792,2.36264 1.70087,-0.18899 9.26047,-2.45692 10.67789,-3.40186 1.4174,-0.94494 1.41719,-0.85067 2.36212,-1.60662 0.0654,-0.0523 0.23506,-0.19937 0.36277,-0.30851 -0.008,55.63419 17.21768,56.4671 37.57393,56.35264 9.75373,-0.0548 18.82312,1.38511 25.58087,-4.00183 6.75775,5.38686 15.82719,3.94698 25.58087,4.00183 20.3563,0.11446 37.58234,-0.71846 37.57393,-56.35315 0.128,0.10938 0.29776,0.2566 0.3633,0.30902 0.94493,0.75595 0.94472,0.66168 2.36212,1.60662 1.41742,0.94494 8.97702,3.21287 10.67789,3.40186 1.7009,0.18898 15.02458,-1.41769 17.19792,-2.36264 2.17337,-0.94494 8.31548,-2.55135 9.92188,-4.63021 1.60641,-2.07887 0.94509,-4.1573 -0.47231,-6.70864 -1.41743,-2.55134 -10.93941,-6.15053 -15.61664,-8.82323 -4.6772,-2.67269 -9.22062,-8.95397 -9.22062,-8.95397 -21.1746,-19.40688 -24.88367,-36.42846 -24.66205,-61.204536 l -0.006,-0.766881 C 618.27733,67.000064 594.00916,43.330603 564.42517,43.646947 Z"
         style="opacity:1;vector-effect:none;fill:#000000;fill-opacity:1;fill-rule:evenodd;stroke:none;stroke-width:0.28087789;stroke-linecap:butt;stroke-linejoin:miter;stroke-miterlimit:4;stroke-dasharray:none;stroke-dashoffset:0;stroke-opacity:1" />
    </clipPath>
    <filter
       inkscape:collect="always"
       style="color-interpolation-filters:sRGB"
       id="filter1824"
       x="-0.055435633"
       width="1.1108713"
       y="-0.045535141"
       height="1.0910703">
      <feGaussianBlur
         inkscape:collect="always"
         stdDeviation="0.39750715"
         id="feGaussianBlur1826" />
    </filter>
    <radialGradient
       inkscape:collect="always"
       xlink:href="#linearGradient1842"
       id="radialGradient1844"
       cx="55.158382"
       cy="119.3746"
       fx="55.158382"
       fy="119.3746"
       r="1.5591518"
       gradientTransform="matrix(1,0,0,1.7196969,218.69323,-14.686619)"
       gradientUnits="userSpaceOnUse" />
    <radialGradient
       inkscape:collect="always"
       xlink:href="#linearGradient1842"
       id="radialGradient1848"
       gradientUnits="userSpaceOnUse"
       gradientTransform="matrix(1,0,0,1.7196969,254.18347,-3.127684)"
       cx="55.158382"
       cy="119.3746"
       fx="55.158382"
       fy="119.3746"
       r="1.5591518" />
    <filter
       inkscape:collect="always"
       style="color-interpolation-filters:sRGB"
       id="filter1870"
       x="-0.011657955"
       width="1.0233159"
       y="-0.023570011"
       height="1.04714">
      <feGaussianBlur
         inkscape:collect="always"
         stdDeviation="0.25587363"
         id="feGaussianBlur1872" />
    </filter>
    <filter
       inkscape:collect="always"
       style="color-interpolation-filters:sRGB"
       id="filter1916"
       x="-0.083104391"
       width="1.1662088"
       y="-0.15793507"
       height="1.3158701">
      <feGaussianBlur
         inkscape:collect="always"
         stdDeviation="1.6968725"
         id="feGaussianBlur1918" />
    </filter>
    <filter
       inkscape:collect="always"
       style="color-interpolation-filters:sRGB"
       id="filter1920"
       x="-0.089139226"
       width="1.1782785"
       y="-0.16561658"
       height="1.3312332">
      <feGaussianBlur
         inkscape:collect="always"
         stdDeviation="1.6968725"
         id="feGaussianBlur1922" />
    </filter>
    <clipPath
       clipPathUnits="userSpaceOnUse"
       id="clipPath1930">
      <path
         sodipodi:nodetypes="ccccccc"
         inkscape:connector-curvature="0"
         id="path1932"
         d="m 589.49209,120.20121 c 4.2413,-5.90324 -1.32977,-9.6764 -8.01809,-9.88898 -11.63611,-0.70277 -23.15298,-0.45148 -34.61139,0.26727 -8.65349,0.76011 -9.37038,6.24944 -6.54812,9.48807 5.3671,5.71372 11.65185,10.05099 18.44159,13.63075 4.87992,2.74295 7.28781,2.41376 11.4926,0.4009 8.00309,-3.52063 14.79542,-7.88879 19.24341,-13.89801 z"
         style="opacity:1;vector-effect:none;fill:#ff7f2b;fill-opacity:1;stroke:none;stroke-width:0.1;stroke-linecap:butt;stroke-linejoin:miter;stroke-miterlimit:4;stroke-dasharray:none;stroke-dashoffset:0;stroke-opacity:1" />
    </clipPath>
    <filter
       inkscape:collect="always"
       style="color-interpolation-filters:sRGB"
       id="filter1960"
       x="-0.041000916"
       width="1.0820018"
       y="-0.23010019"
       height="1.4602004">
      <feGaussianBlur
         inkscape:collect="always"
         stdDeviation="0.22628149"
         id="feGaussianBlur1962" />
    </filter>
    <filter
       inkscape:collect="always"
       style="color-interpolation-filters:sRGB"
       id="filter2014"
       x="-0.24675415"
       width="1.4935083"
       y="-0.27031986"
       height="1.5406397">
      <feGaussianBlur
         inkscape:collect="always"
         stdDeviation="1.7639455"
         id="feGaussianBlur2016" />
    </filter>
  </defs>
  <sodipodi:namedview
     id="base"
     pagecolor="#ffffff"
     bordercolor="#666666"
     borderopacity="1.0"
     inkscape:pageopacity="0.0"
     inkscape:pageshadow="2"
     inkscape:zoom="0.35"
     inkscape:cx="355.80695"
     inkscape:cy="412.93484"
     inkscape:document-units="mm"
     inkscape:current-layer="layer1"
     showgrid="false"
     inkscape:snap-global="true"
     inkscape:window-width="1920"
     inkscape:window-height="1017"
     inkscape:window-x="-8"
     inkscape:window-y="-8"
     inkscape:window-maximized="1" />
  <metadata
     id="metadata5">
    <rdf:RDF>
      <cc:Work
         rdf:about="">
        <dc:format>image/svg+xml</dc:format>
        <dc:type
           rdf:resource="http://purl.org/dc/dcmitype/StillImage" />
        <dc:title />
      </cc:Work>
    </rdf:RDF>
  </metadata>
  <g
     inkscape:label="Camada 1"
     inkscape:groupmode="layer"
     id="layer1">
    <g
       id="g2047"
       transform="translate(-229.99996,-1.2009434)">
      <path
         inkscape:connector-curvature="0"
         id="path1574"
         d="m 306.89246,220.88109 a 11.202318,17.438921 0 0 0 -4.67878,1.70222 c -2.55804,0.48315 -5.12099,1.70755 -7.32462,3.89434 -11.31408,11.22745 -13.6869,12.98123 -11.17916,18.4304 2.00453,4.3557 5.94186,3.72824 13.70976,2.37866 a 11.202318,17.438921 0 0 0 9.633,8.47132 11.202318,17.438921 0 0 0 9.26765,-7.7494 c 7.20661,5.16981 10.62731,7.87395 14.27303,5.50354 4.29439,-2.79217 2.85563,-5.16717 -2.91507,-18.56941 -2.48205,-5.76454 -8.2996,-8.93213 -13.07517,-9.41958 a 11.202318,17.438921 0 0 0 -7.71064,-4.64209 z"
         style="opacity:1;vector-effect:none;fill:#ff6600;fill-opacity:1;fill-rule:evenodd;stroke:none;stroke-width:0.38494685;stroke-linecap:butt;stroke-linejoin:miter;stroke-miterlimit:4;stroke-dasharray:none;stroke-dashoffset:0;stroke-opacity:1" />
      <g
         id="g1712">
        <path
           inkscape:connector-curvature="0"
           id="path1700"
           d="m 368.5969,220.88109 a 11.202318,17.438921 0 0 1 4.67878,1.70222 c 2.55804,0.48315 5.12099,1.70755 7.32462,3.89434 11.31408,11.22745 13.6869,12.98123 11.17916,18.4304 -2.00453,4.3557 -5.94186,3.72824 -13.70976,2.37866 a 11.202318,17.438921 0 0 1 -9.633,8.47132 11.202318,17.438921 0 0 1 -9.26765,-7.7494 c -7.20661,5.16981 -10.62731,7.87395 -14.27303,5.50354 -4.29439,-2.79217 -2.85563,-5.16717 2.91507,-18.56941 2.48205,-5.76454 8.2996,-8.93213 13.07517,-9.41958 a 11.202318,17.438921 0 0 1 7.71064,-4.64209 z"
           style="opacity:1;vector-effect:none;fill:#ff6600;fill-opacity:1;fill-rule:evenodd;stroke:none;stroke-width:0.38494685;stroke-linecap:butt;stroke-linejoin:miter;stroke-miterlimit:4;stroke-dasharray:none;stroke-dashoffset:0;stroke-opacity:1" />
        <g
           transform="matrix(-1,0,0,1,905.48936,0)"
           clip-path="url(#clipPath1696)"
           id="g1706">
          <path
             style="opacity:1;vector-effect:none;fill:#803300;fill-opacity:1;fill-rule:evenodd;stroke:none;stroke-width:1.45491707;stroke-linecap:butt;stroke-linejoin:miter;stroke-miterlimit:4;stroke-dasharray:none;stroke-dashoffset:0;stroke-opacity:1;filter:url(#filter1674)"
             d="m 1078.8711,891.92383 c -11.2708,13.33965 -12.335,20.70627 -6.582,33.20703 4.9489,10.75351 13.0484,13.44744 26.2304,12.61719 -1.8428,-1.82457 -3.4222,-4.14136 -4.7656,-7.06055 -5.0542,-10.98241 -4.8572,-17.99554 2.9063,-28.58203 -6.2493,-2.59072 -12.1937,-5.92441 -17.7891,-10.18164 z m 66.6992,47.7539 c -6.5683,1.14116 -12.3748,2.12681 -17.5742,2.81446 a 42.33947,65.910883 0 0 0 32.5176,23.64648 42.33947,65.910883 0 0 0 3.9082,-0.32812 42.33947,65.910883 0 0 1 -18.8516,-26.13282 z m 71.4356,2.72852 a 42.33947,65.910883 0 0 1 -3.5957,7.11914 c 12.6622,8.59759 21.5168,12.94144 29.8515,10.89649 -7.1766,-4.20091 -15.6159,-10.38291 -26.2558,-18.01563 z"
             transform="matrix(0.26458333,0,0,0.26458333,230,0)"
             id="path1702"
             inkscape:connector-curvature="0" />
          <path
             style="opacity:0.65399996;vector-effect:none;fill:#ffb380;fill-opacity:1;fill-rule:evenodd;stroke:none;stroke-width:1.45491707;stroke-linecap:butt;stroke-linejoin:miter;stroke-miterlimit:4;stroke-dasharray:none;stroke-dashoffset:0;stroke-opacity:1;filter:url(#filter1686)"
             d="m 1072.5098,901.08594 c -1.3162,2.21789 -2.2644,4.30891 -2.8594,6.34961 0.5764,2.22512 1.4599,4.56754 2.6387,7.1289 7.5761,16.46249 22.4573,14.09097 51.8164,8.99024 a 42.33947,65.910883 0 0 0 36.4082,32.01758 42.33947,65.910883 0 0 0 35.0273,-29.28907 c 27.2376,19.53944 40.1662,29.75981 53.9453,20.80078 4.5544,-2.96122 7.385,-5.80962 8.6426,-9.48046 -0.5878,-2.67375 -1.5394,-5.75602 -2.7851,-9.25196 -1.4779,1.663 -3.4169,3.21786 -5.8575,4.80469 -13.7791,8.95903 -26.7077,-1.26134 -53.9453,-20.80078 a 42.33947,65.910883 0 0 1 -35.0273,29.28906 42.33947,65.910883 0 0 1 -36.4082,-32.01758 c -29.0822,5.05268 -43.954,7.41583 -51.5957,-8.54101 z"
             transform="matrix(0.26458333,0,0,0.26458333,230,0)"
             id="path1704"
             inkscape:connector-curvature="0" />
        </g>
      </g>
      <path
         transform="scale(0.26458333)"
         sodipodi:nodetypes="ccccsscccccccscccccccscccc"
         inkscape:connector-curvature="0"
         id="path1587"
         d="m 1263.9688,164.96484 c -111.8151,1.19722 -201.6026,92.60126 -200.8047,204.41993 17.2795,102.12851 -27.0008,152.48739 -93.21683,229.875 0,0 -17.17392,23.74029 -34.85157,33.84179 -17.67768,10.10155 -53.66434,23.7048 -59.02148,33.34766 -5.35714,9.64286 -7.85659,17.49832 -1.78516,25.35547 6.0714,7.85711 29.28573,13.92857 37.5,17.5 8.21428,3.57146 58.5714,9.64393 65,8.92969 6.42856,-0.7143 35.00024,-9.286 40.35744,-12.85743 5.3571,-3.57142 5.3563,-3.21513 8.9277,-6.07226 0.2473,-0.19784 0.8884,-0.75355 1.3711,-1.16602 -0.031,210.27095 65.0747,213.41896 142.0117,212.98633 36.8645,-0.20712 71.1425,5.23509 96.6836,-15.125 25.5411,20.35979 59.8193,14.91769 96.6836,15.125 76.9372,0.43263 142.0435,-2.71542 142.0117,-212.98828 0.4838,0.41341 1.1254,0.96982 1.3731,1.16797 3.5714,2.85713 3.5706,2.50084 8.9277,6.07226 5.3572,3.57143 33.9289,12.14313 40.3574,12.85743 6.4286,0.71424 56.7858,-5.35823 65,-8.92969 8.2143,-3.57143 31.4286,-9.64289 37.5,-17.5 6.0715,-7.85715 3.572,-15.71261 -1.7851,-25.35547 -5.3572,-9.64286 -41.3458,-23.24611 -59.0235,-33.34766 -17.6776,-10.1015 -34.8496,-33.84179 -34.8496,-33.84179 -80.03,-73.34883 -94.0485,-137.68237 -93.2109,-231.32422 l -0.023,-2.89844 c -1.5971,-111.80852 -93.3193,-201.2679 -205.1328,-200.07227 z"
         style="opacity:1;vector-effect:none;fill:#000000;fill-opacity:1;fill-rule:evenodd;stroke:none;stroke-width:1.06158566;stroke-linecap:butt;stroke-linejoin:miter;stroke-miterlimit:4;stroke-dasharray:none;stroke-dashoffset:0;stroke-opacity:1" />
      <path
         inkscape:connector-curvature="0"
         id="path1606"
         d="m 316.43193,73.344359 a 27.748597,28.216317 0 0 0 -27.45104,28.416351 27.748597,28.216317 0 0 0 8.56021,20.18172 50.611801,64.691397 0 0 0 -13.18163,43.8893 50.611801,64.691397 0 0 0 50.79122,64.22916 50.611801,64.691397 0 0 0 50.43103,-64.69114 l -0.005,-0.92346 a 50.611801,64.691397 0 0 0 -13.19765,-42.53125 27.748597,28.216317 0 0 0 8.58088,-20.35587 l -0.003,-0.40307 A 27.748597,28.216317 0 0 0 352.9137,73.344359 27.748597,28.216317 0 0 0 334.9732,80.338246 27.748597,28.216317 0 0 0 316.43169,73.344359 Z"
         style="opacity:1;vector-effect:none;fill:#ffffff;fill-opacity:1;fill-rule:evenodd;stroke:none;stroke-width:0.39486042;stroke-linecap:butt;stroke-linejoin:miter;stroke-miterlimit:4;stroke-dasharray:none;stroke-dashoffset:0;stroke-opacity:1" />
      <g
         transform="translate(-230)"
         clip-path="url(#clipPath1696)"
         id="g1692">
        <path
           style="opacity:1;vector-effect:none;fill:#803300;fill-opacity:1;fill-rule:evenodd;stroke:none;stroke-width:1.45491707;stroke-linecap:butt;stroke-linejoin:miter;stroke-miterlimit:4;stroke-dasharray:none;stroke-dashoffset:0;stroke-opacity:1;filter:url(#filter1674)"
           d="m 1078.8711,891.92383 c -11.2708,13.33965 -12.335,20.70627 -6.582,33.20703 4.9489,10.75351 13.0484,13.44744 26.2304,12.61719 -1.8428,-1.82457 -3.4222,-4.14136 -4.7656,-7.06055 -5.0542,-10.98241 -4.8572,-17.99554 2.9063,-28.58203 -6.2493,-2.59072 -12.1937,-5.92441 -17.7891,-10.18164 z m 66.6992,47.7539 c -6.5683,1.14116 -12.3748,2.12681 -17.5742,2.81446 a 42.33947,65.910883 0 0 0 32.5176,23.64648 42.33947,65.910883 0 0 0 3.9082,-0.32812 42.33947,65.910883 0 0 1 -18.8516,-26.13282 z m 71.4356,2.72852 a 42.33947,65.910883 0 0 1 -3.5957,7.11914 c 12.6622,8.59759 21.5168,12.94144 29.8515,10.89649 -7.1766,-4.20091 -15.6159,-10.38291 -26.2558,-18.01563 z"
           transform="matrix(0.26458333,0,0,0.26458333,230,0)"
           id="path1614"
           inkscape:connector-curvature="0" />
        <path
           style="opacity:0.65399996;vector-effect:none;fill:#ffb380;fill-opacity:1;fill-rule:evenodd;stroke:none;stroke-width:1.45491707;stroke-linecap:butt;stroke-linejoin:miter;stroke-miterlimit:4;stroke-dasharray:none;stroke-dashoffset:0;stroke-opacity:1;filter:url(#filter1686)"
           d="m 1072.5098,901.08594 c -1.3162,2.21789 -2.2644,4.30891 -2.8594,6.34961 0.5764,2.22512 1.4599,4.56754 2.6387,7.1289 7.5761,16.46249 22.4573,14.09097 51.8164,8.99024 a 42.33947,65.910883 0 0 0 36.4082,32.01758 42.33947,65.910883 0 0 0 35.0273,-29.28907 c 27.2376,19.53944 40.1662,29.75981 53.9453,20.80078 4.5544,-2.96122 7.385,-5.80962 8.6426,-9.48046 -0.5878,-2.67375 -1.5394,-5.75602 -2.7851,-9.25196 -1.4779,1.663 -3.4169,3.21786 -5.8575,4.80469 -13.7791,8.95903 -26.7077,-1.26134 -53.9453,-20.80078 a 42.33947,65.910883 0 0 1 -35.0273,29.28906 42.33947,65.910883 0 0 1 -36.4082,-32.01758 c -29.0822,5.05268 -43.954,7.41583 -51.5957,-8.54101 z"
           transform="matrix(0.26458333,0,0,0.26458333,230,0)"
           id="path1622"
           inkscape:connector-curvature="0" />
      </g>
      <path
         inkscape:connector-curvature="0"
         id="path1714"
         d="m 289.11931,96.66357 a 27.748597,28.216317 0 0 0 -0.51626,5.47512 27.748597,28.216317 0 0 0 5.83996,17.05839 50.611801,64.691397 0 0 1 3.09801,-4.81418 27.748597,28.216317 0 0 1 -8.42171,-17.71933 z m 91.31792,2.632914 a 27.748597,28.216317 0 0 1 -8.05842,15.059026 50.611801,64.691397 0 0 1 2.7368,4.30258 27.748597,28.216317 0 0 0 5.46632,-16.72094 l -0.003,-0.40307 a 27.748597,28.216317 0 0 0 -0.1416,-2.237596 z m -96.07267,59.089936 a 50.611801,64.691397 0 0 0 -0.38293,7.82329 50.611801,64.691397 0 0 0 50.79121,64.22915 50.611801,64.691397 0 0 0 50.43104,-64.69114 l -0.004,-0.68936 a 50.611801,64.691397 0 0 1 -50.04967,57.443 50.611801,64.691397 0 0 1 -50.78603,-64.11494 z"
         style="opacity:0.81400003;vector-effect:none;fill:#999999;fill-opacity:1;fill-rule:evenodd;stroke:none;stroke-width:0.39486042;stroke-linecap:butt;stroke-linejoin:miter;stroke-miterlimit:4;stroke-dasharray:none;stroke-dashoffset:0;stroke-opacity:1;filter:url(#filter1756)" />
      <path
         inkscape:connector-curvature="0"
         id="path1719"
         d="m 316.43185,73.344139 a 27.748597,28.216317 0 0 0 -27.45105,28.416351 27.748597,28.216317 0 0 0 1.09244,7.53339 27.748597,28.216317 0 0 1 26.35861,-20.452497 27.748597,28.216317 0 0 1 18.54149,6.993887 27.748597,28.216317 0 0 1 17.94053,-6.993887 27.748597,28.216317 0 0 1 26.94148,20.449397 27.748597,28.216317 0 0 0 1.10435,-7.73183 l -0.003,-0.40307 a 27.748597,28.216317 0 0 0 -28.04324,-27.811741 27.748597,28.216317 0 0 0 -17.94053,6.993888 27.748597,28.216317 0 0 0 -18.54149,-6.993888 z m 61.08723,57.259551 a 27.748597,28.216317 0 0 1 -5.14027,6.80837 50.611801,64.691397 0 0 1 12.79147,35.53013 50.611801,64.691397 0 0 0 0.41135,-7.57266 l -0.005,-0.92346 a 50.611801,64.691397 0 0 0 -8.05739,-33.84238 z m -85.11471,0.0155 a 50.611801,64.691397 0 0 0 -8.045,35.21233 50.611801,64.691397 0 0 0 0.4031,7.37939 50.611801,64.691397 0 0 1 12.77855,-35.77146 27.748597,28.216317 0 0 1 -5.13665,-6.82026 z"
         style="opacity:0.27900002;vector-effect:none;fill:#666666;fill-opacity:1;fill-rule:evenodd;stroke:none;stroke-width:0.39486042;stroke-linecap:butt;stroke-linejoin:miter;stroke-miterlimit:4;stroke-dasharray:none;stroke-dashoffset:0;stroke-opacity:1;filter:url(#filter1760)" />
      <path
         transform="translate(-230)"
         clip-path="url(#clipPath1791)"
         inkscape:connector-curvature="0"
         id="path1764"
         d="m 563.61536,43.560574 c -29.58441,0.316765 -53.34069,24.500747 -53.12958,54.086103 4.57187,27.021503 -7.14393,40.345623 -24.6636,60.821093 0,0 -4.54392,6.28129 -9.22114,8.95398 -4.67722,2.6727 -14.19869,6.27189 -15.6161,8.82323 -1.41741,2.55134 -2.07873,4.62977 -0.47232,6.70863 0.7608,0.98457 2.54067,1.86178 4.4328,2.61431 -0.1353,-1.39076 0.46213,-2.85082 1.38493,-4.51186 1.41741,-2.55134 10.93888,-6.15054 15.6161,-8.82324 4.67721,-2.67269 9.22114,-8.95397 9.22114,-8.95397 17.51966,-20.47547 29.23549,-33.7996 24.66362,-60.8211 -0.21111,-29.585351 23.54517,-53.769336 53.12958,-54.086101 12.72574,-0.136075 24.46567,4.168741 33.74935,11.470619 -9.89484,-10.18209 -23.78218,-16.445431 -39.09478,-16.281694 z m 87.21587,123.269996 c 1.71291,1.8877 3.98553,4.08361 6.29314,5.40225 2.84943,1.62824 7.49041,3.59988 11.00812,5.46944 -0.2091,-0.46993 -0.45741,-0.95421 -0.73689,-1.45728 -1.41742,-2.55134 -10.93941,-6.15053 -15.61663,-8.82323 -0.31708,-0.18119 -0.63328,-0.37991 -0.94774,-0.59118 z m -144.45062,22.60999 c -0.12771,0.10913 -0.29734,0.25616 -0.36277,0.30851 -0.94493,0.75594 -0.94472,0.66168 -2.36212,1.60661 -0.411,0.274 -1.34575,0.66032 -2.497,1.07384 0.89421,27.30144 6.64509,39.28939 15.00941,44.52958 -6.05242,-7.57515 -9.79133,-21.59665 -9.78752,-47.51854 z"
         style="opacity:1;vector-effect:none;fill:#4d4d4d;fill-opacity:1;fill-rule:evenodd;stroke:none;stroke-width:0.28087786;stroke-linecap:butt;stroke-linejoin:miter;stroke-miterlimit:4;stroke-dasharray:none;stroke-dashoffset:0;stroke-opacity:1;filter:url(#filter1785)" />
      <path
         transform="translate(-230)"
         clip-path="url(#clipPath1814)"
         inkscape:connector-curvature="0"
         id="path1795"
         d="m 601.20659,57.396714 c 8.69847,9.392666 14.08878,21.907757 14.28597,35.711516 l 0.006,0.766879 c -0.21426,23.954631 3.24742,40.660351 22.61465,59.281651 -16.78165,-17.4688 -19.87772,-33.65411 -19.67478,-56.341778 l -0.006,-0.766879 C 618.21435,80.749302 611.61718,67.0329 601.20659,57.396714 Z m 39.38985,98.257056 c 0.83754,1.09103 2.88311,3.63971 5.379,5.8601 -1.73024,-1.91307 -2.87475,-3.49436 -2.87475,-3.49436 -0.86458,-0.79239 -1.69698,-1.58062 -2.50425,-2.36574 z m 24.80987,17.97254 c 1.11847,2.20699 1.50569,4.07358 0.0641,5.93917 -1.6064,2.07887 -7.74851,3.68527 -9.92188,4.63021 -2.17334,0.94495 -15.49702,2.55162 -17.19792,2.36265 -1.70087,-0.18899 -9.26047,-2.45692 -10.67789,-3.40186 -1.4174,-0.94494 -1.41719,-0.85067 -2.36212,-1.60662 -0.0655,-0.0524 -0.2353,-0.19964 -0.3633,-0.30903 0.008,55.6347 -17.21763,56.46762 -37.57393,56.35315 -9.75368,-0.0548 -18.82312,1.38504 -25.58087,-4.00182 -6.75775,5.38694 -15.82713,3.94702 -25.58087,4.00182 -9.28767,0.0522 -17.92266,-0.096 -24.56749,-5.55315 6.9246,8.34634 16.78041,8.55335 27.50738,8.49303 9.75374,-0.0548 18.82312,1.38511 25.58087,-4.00183 6.75775,5.38686 15.82717,3.94697 25.58085,4.00183 20.3563,0.11446 37.58236,-0.71845 37.57395,-56.35315 0.12798,0.10938 0.29774,0.25659 0.36327,0.30902 0.94494,0.75595 0.94472,0.66168 2.36212,1.60662 1.41743,0.94494 8.97705,3.21287 10.67793,3.40186 1.7009,0.18897 15.02457,-1.4177 17.19791,-2.36264 2.17334,-0.94495 8.31549,-2.55135 9.92188,-4.63021 1.60641,-2.07887 0.94506,-4.1573 -0.47234,-6.70864 -0.36883,-0.66387 -1.29347,-1.39943 -2.53161,-2.17041 z m -205.0738,7.55923 c 0.15124,0.44278 0.38369,0.88144 0.72244,1.31982 1.60639,2.07886 7.74852,3.68526 9.92187,4.63021 2.17336,0.94494 15.49702,2.55161 17.19792,2.36264 1.6477,-0.18308 8.7766,-2.31342 10.51047,-3.30574 -0.0316,-1.60074 -0.0478,-3.24937 -0.0476,-4.95112 -0.12771,0.10913 -0.29733,0.25616 -0.36277,0.30851 -0.94493,0.75595 -0.94472,0.66168 -2.36212,1.60662 -1.41742,0.94494 -8.97701,3.21287 -10.6779,3.40186 -1.7009,0.18897 -15.02456,-1.4177 -17.19792,-2.36265 -1.5686,-0.682 -5.19847,-1.71008 -7.70444,-3.01015 z"
         style="opacity:1;vector-effect:none;fill:#666666;fill-opacity:1;fill-rule:evenodd;stroke:none;stroke-width:0.28087786;stroke-linecap:butt;stroke-linejoin:miter;stroke-miterlimit:4;stroke-dasharray:none;stroke-dashoffset:0;stroke-opacity:1;filter:url(#filter1808)" />
      <path
         d="m 325.13323,97.149208 a 8.6047287,10.475615 0 0 1 -8.57401,10.475552 8.6047287,10.475615 0 0 1 -8.63523,-10.400773 8.6047287,10.475615 0 0 1 8.51238,-10.549793 8.6047287,10.475615 0 0 1 8.69599,10.325461"
         sodipodi:open="true"
         sodipodi:end="6.2689085"
         sodipodi:start="0"
         sodipodi:ry="10.475615"
         sodipodi:rx="8.6047287"
         sodipodi:cy="97.149208"
         sodipodi:cx="316.5285"
         sodipodi:type="arc"
         id="path1818"
         style="opacity:1;vector-effect:none;fill:#c6c6c6;fill-opacity:1;fill-rule:evenodd;stroke:none;stroke-width:0.32942805;stroke-linecap:butt;stroke-linejoin:miter;stroke-miterlimit:4;stroke-dasharray:none;stroke-dashoffset:0;stroke-opacity:1;filter:url(#filter1824)" />
      <path
         transform="matrix(1.0259833,0,0,1.0659914,226.78641,-6.4110168)"
         style="opacity:1;vector-effect:none;fill:#c6c6c6;fill-opacity:1;fill-rule:evenodd;stroke:none;stroke-width:0.32942805;stroke-linecap:butt;stroke-linejoin:miter;stroke-miterlimit:4;stroke-dasharray:none;stroke-dashoffset:0;stroke-opacity:1;filter:url(#filter1824)"
         id="path1828"
         sodipodi:type="arc"
         sodipodi:cx="123.67898"
         sodipodi:cy="97.149208"
         sodipodi:rx="8.6047287"
         sodipodi:ry="10.475615"
         sodipodi:start="0"
         sodipodi:end="6.2689085"
         sodipodi:open="true"
         d="m 132.28371,97.149208 a 8.6047287,10.475615 0 0 1 -8.57402,10.475552 8.6047287,10.475615 0 0 1 -8.63522,-10.400773 8.6047287,10.475615 0 0 1 8.51237,-10.549793 8.6047287,10.475615 0 0 1 8.69599,10.325461" />
      <path
         d="m 322.94627,99.625557 a 6.3661003,7.7362628 0 0 1 -6.34338,7.736213 6.3661003,7.7362628 0 0 1 -6.38866,-7.680989 6.3661003,7.7362628 0 0 1 6.29778,-7.791043 6.3661003,7.7362628 0 0 1 6.43361,7.625374"
         sodipodi:open="true"
         sodipodi:end="6.2689085"
         sodipodi:start="0"
         sodipodi:ry="7.7362628"
         sodipodi:rx="6.3661003"
         sodipodi:cy="99.625557"
         sodipodi:cx="316.58017"
         sodipodi:type="arc"
         id="path1830"
         style="opacity:1;vector-effect:none;fill:#000000;fill-opacity:1;fill-rule:evenodd;stroke:none;stroke-width:0.37174353;stroke-linecap:butt;stroke-linejoin:miter;stroke-miterlimit:4;stroke-dasharray:none;stroke-dashoffset:0;stroke-opacity:1" />
      <path
         style="opacity:1;vector-effect:none;fill:#000000;fill-opacity:1;fill-rule:evenodd;stroke:none;stroke-width:0.37174353;stroke-linecap:butt;stroke-linejoin:miter;stroke-miterlimit:4;stroke-dasharray:none;stroke-dashoffset:0;stroke-opacity:1"
         id="path1832"
         sodipodi:type="arc"
         sodipodi:cx="353.86426"
         sodipodi:cy="99.625557"
         sodipodi:rx="6.3661003"
         sodipodi:ry="7.7362628"
         sodipodi:start="0"
         sodipodi:end="6.2689085"
         sodipodi:open="true"
         d="m 360.23036,99.625557 a 6.3661003,7.7362628 0 0 1 -6.34338,7.736213 6.3661003,7.7362628 0 0 1 -6.38866,-7.680989 6.3661003,7.7362628 0 0 1 6.29777,-7.791043 6.3661003,7.7362628 0 0 1 6.43362,7.625374" />
      <ellipse
         transform="rotate(-18.040081)"
         ry="2.6812685"
         rx="1.5591518"
         cy="190.60152"
         cx="273.85159"
         id="path1834"
         style="opacity:1;vector-effect:none;fill:url(#radialGradient1844);fill-opacity:1;fill-rule:evenodd;stroke:none;stroke-width:0.30000001;stroke-linecap:butt;stroke-linejoin:miter;stroke-miterlimit:4;stroke-dasharray:none;stroke-dashoffset:0;stroke-opacity:1" />
      <ellipse
         style="opacity:1;vector-effect:none;fill:url(#radialGradient1848);fill-opacity:1;fill-rule:evenodd;stroke:none;stroke-width:0.30000001;stroke-linecap:butt;stroke-linejoin:miter;stroke-miterlimit:4;stroke-dasharray:none;stroke-dashoffset:0;stroke-opacity:1"
         id="ellipse1846"
         cx="309.34186"
         cy="202.16045"
         rx="1.5591518"
         ry="2.6812685"
         transform="rotate(-18.040081)" />
      <path
         style="opacity:1;vector-effect:none;fill:#552200;fill-opacity:1;stroke:none;stroke-width:0.10103646;stroke-linecap:butt;stroke-linejoin:miter;stroke-miterlimit:4;stroke-dasharray:none;stroke-dashoffset:0;stroke-opacity:1;filter:url(#filter1870)"
         d="m 359.74694,120.17439 c 4.28526,-5.96442 -1.34354,-9.77669 -8.10119,-9.99147 -11.75672,-0.71006 -23.39295,-0.45616 -34.97013,0.27004 -8.74317,0.76798 -9.46748,6.31421 -6.61598,9.58641 5.42274,5.77294 11.77262,10.15516 18.63274,13.77202 4.93049,2.77138 7.36334,2.43878 11.61171,0.40506 8.08604,-3.55712 14.94878,-7.97056 19.44285,-14.04206 z"
         id="path1852"
         inkscape:connector-curvature="0"
         sodipodi:nodetypes="ccccccc" />
      <path
         sodipodi:nodetypes="ccccccc"
         inkscape:connector-curvature="0"
         id="path1850"
         d="m 359.49208,120.20121 c 4.2413,-5.90324 -1.32976,-9.6764 -8.01808,-9.88898 -11.63612,-0.70277 -23.15298,-0.45148 -34.6114,0.26727 -8.65348,0.76011 -9.37036,6.24944 -6.54811,9.48807 5.36711,5.71372 11.65185,10.05099 18.4416,13.63075 4.87991,2.74295 7.2878,2.41376 11.49259,0.4009 8.00309,-3.52063 14.79543,-7.88879 19.2434,-13.89801 z"
         style="opacity:1;vector-effect:none;fill:#ff7f2b;fill-opacity:1;stroke:none;stroke-width:0.1;stroke-linecap:butt;stroke-linejoin:miter;stroke-miterlimit:4;stroke-dasharray:none;stroke-dashoffset:0;stroke-opacity:1" />
      <g
         transform="translate(-230)"
         clip-path="url(#clipPath1930)"
         id="g1928">
        <path
           style="opacity:1;vector-effect:none;fill:#aa4400;fill-opacity:1;stroke:none;stroke-width:0.1;stroke-linecap:butt;stroke-linejoin:miter;stroke-miterlimit:4;stroke-dasharray:none;stroke-dashoffset:0;stroke-opacity:1;filter:url(#filter1920)"
           d="m 586.16364,111.18708 c 0.68119,1.5299 0.45939,3.42462 -1.1126,5.61258 -4.44797,6.00922 -11.24069,10.37723 -19.24378,13.89786 -4.20479,2.01286 -6.61242,2.34194 -11.49231,-0.40101 -3.09767,-1.63318 -6.08867,-3.42648 -8.93694,-5.43378 4.14332,3.49799 8.68132,6.40412 13.47256,8.93021 4.87992,2.74295 7.28805,2.41386 11.49283,0.40101 8.00309,-3.52063 14.79532,-7.88916 19.24328,-13.89838 3.19987,-4.45373 0.81352,-7.69396 -3.42304,-9.10849 z"
           id="path1874"
           inkscape:connector-curvature="0" />
        <path
           style="opacity:1;vector-effect:none;fill:#d45500;fill-opacity:1;stroke:none;stroke-width:0.1;stroke-linecap:butt;stroke-linejoin:miter;stroke-miterlimit:4;stroke-dasharray:none;stroke-dashoffset:0;stroke-opacity:1;filter:url(#filter1916)"
           d="m 566.35938,109.89702 c -6.49317,0.0219 -12.95707,0.27835 -19.40243,0.68264 -8.65348,0.76012 -9.37016,6.24917 -6.54793,9.4878 5.36712,5.71372 11.65204,10.05093 18.44177,13.63069 2.72209,1.53006 4.67493,2.10346 6.59961,1.96267 -0.27109,-0.1405 -0.54827,-0.2891 -0.8356,-0.45062 -6.78977,-3.57976 -13.07468,-7.91697 -18.44178,-13.63069 -2.82226,-3.23863 -2.10505,-8.7282 6.54844,-9.48831 11.45841,-0.71875 22.9752,-0.96994 34.61131,-0.26717 0.20156,0.006 0.40171,0.0166 0.601,0.0295 -1.71069,-0.92763 -3.96478,-1.46521 -6.36551,-1.54151 -5.09079,-0.30746 -10.15865,-0.43198 -15.20888,-0.41496 z"
           id="path1879"
           inkscape:connector-curvature="0" />
      </g>
      <path
         id="path1934"
         transform="scale(0.26458333)"
         d="m 1284.8398,427.07227 a 5.8715116,4.2931483 0 0 0 -5.873,4.29296 5.8715116,4.2931483 0 0 0 5.873,4.29493 5.8715116,4.2931483 0 0 0 5.8711,-4.29493 5.8715116,4.2931483 0 0 0 -5.8711,-4.29296 z m -38.5722,0.71484 a 5.8715116,4.2931483 0 0 0 -5.8711,4.29297 5.8715116,4.2931483 0 0 0 5.8711,4.29297 5.8715116,4.2931483 0 0 0 5.8711,-4.29297 5.8715116,4.2931483 0 0 0 -5.8711,-4.29297 z"
         style="opacity:1;vector-effect:none;fill:#d46014;fill-opacity:1;fill-rule:evenodd;stroke:none;stroke-width:1.13385832;stroke-linecap:butt;stroke-linejoin:miter;stroke-miterlimit:4;stroke-dasharray:none;stroke-dashoffset:0;stroke-opacity:1"
         inkscape:connector-curvature="0" />
      <path
         inkscape:connector-curvature="0"
         id="path1939"
         d="m 339.60409,112.80812 a 1.5462392,1.1201022 0 0 0 -1.54677,1.12023 1.5462392,1.1201022 0 0 0 0.44656,0.78628 1.4932423,0.97096485 0 0 1 -0.0681,-0.28933 1.4932423,0.97096485 0 0 1 1.49363,-0.97093 1.4932423,0.97096485 0 0 1 1.21598,0.40905 1.5462392,1.1201022 0 0 0 -1.54134,-1.0553 z m -10.15789,0.18641 a 1.5462392,1.1201022 0 0 0 -1.54626,1.12023 1.5462392,1.1201022 0 0 0 1.0262,1.05353 1.4932423,0.97096485 0 0 1 -0.29951,-0.58132 1.4932423,0.97096485 0 0 1 1.49314,-0.97092 1.4932423,0.97096485 0 0 1 0.79375,0.14886 1.5462392,1.1201022 0 0 0 -1.46732,-0.77038 z"
         style="opacity:1;vector-effect:none;fill:#ff9955;fill-opacity:1;fill-rule:evenodd;stroke:none;stroke-width:0.29720974;stroke-linecap:butt;stroke-linejoin:miter;stroke-miterlimit:4;stroke-dasharray:none;stroke-dashoffset:0;stroke-opacity:1;filter:url(#filter1960)" />
      <path
         inkscape:connector-curvature="0"
         id="path1964"
         d="m 354.16518,115.28794 c 0,0 -1.13393,2.64584 -4.25223,5.29167 -3.11831,2.64583 -5.48066,4.63021 -6.89807,5.48066 -1.41741,0.85044 -2.55134,2.64583 -1.88988,3.30729 0.66146,0.66146 5.95312,-0.85045 8.03199,-2.36235 2.07887,-1.51191 7.74852,-6.99256 7.9375,-7.55953 0.18899,-0.56696 1.22843,-2.92931 0.94494,-3.68527 -0.28348,-0.75595 -1.32291,-1.79538 -2.17336,-1.88988 -0.85045,-0.0945 -1.70089,1.41741 -1.70089,1.41741 z"
         style="opacity:1;vector-effect:none;fill:#fdbe92;fill-opacity:1;stroke:none;stroke-width:0.1;stroke-linecap:butt;stroke-linejoin:miter;stroke-miterlimit:4;stroke-dasharray:none;stroke-dashoffset:0;stroke-opacity:1;filter:url(#filter2014)" />
    </g>
  </g>
</svg>
