<?xml version="1.0" encoding="UTF-8" standalone="no"?>
<!-- Created with Inkscape (http://www.inkscape.org/) -->

<svg
   xmlns:dc="http://purl.org/dc/elements/1.1/"
   xmlns:cc="http://creativecommons.org/ns#"
   xmlns:rdf="http://www.w3.org/1999/02/22-rdf-syntax-ns#"
   xmlns:svg="http://www.w3.org/2000/svg"
   xmlns="http://www.w3.org/2000/svg"
   xmlns:sodipodi="http://sodipodi.sourceforge.net/DTD/sodipodi-0.dtd"
   xmlns:inkscape="http://www.inkscape.org/namespaces/inkscape"
   width="210mm"
   height="297mm"
   viewBox="0 0 210 297"
   version="1.1"
   id="svg1158"
   inkscape:version="0.92.3 (2405546, 2018-03-11)"
   sodipodi:docname="logo.svg">
  <defs
     id="defs1152">
    <filter
       inkscape:collect="always"
       style="color-interpolation-filters:sRGB"
       id="filter992"
       x="-0.02425503"
       width="1.0485101"
       y="-0.023750277"
       height="1.0475006">
      <feGaussianBlur
         inkscape:collect="always"
         stdDeviation="0.95697645"
         id="feGaussianBlur994" />
    </filter>
  </defs>
  <sodipodi:namedview
     id="base"
     pagecolor="#ffffff"
     bordercolor="#666666"
     borderopacity="1.0"
     inkscape:pageopacity="0.0"
     inkscape:pageshadow="2"
     inkscape:zoom="0.35"
     inkscape:cx="-98.571429"
     inkscape:cy="560"
     inkscape:document-units="mm"
     inkscape:current-layer="layer1"
     showgrid="false"
     inkscape:window-width="1299"
     inkscape:window-height="713"
     inkscape:window-x="67"
     inkscape:window-y="27"
     inkscape:window-maximized="1"
     inkscape:pagecheckerboard="true" />
  <metadata
     id="metadata1155">
    <rdf:RDF>
      <cc:Work
         rdf:about="">
        <dc:format>image/svg+xml</dc:format>
        <dc:type
           rdf:resource="http://purl.org/dc/dcmitype/StillImage" />
        <dc:title></dc:title>
      </cc:Work>
    </rdf:RDF>
  </metadata>
  <g
     inkscape:label="Layer 1"
     inkscape:groupmode="layer"
     id="layer1">
    <g
       id="g1137"
       transform="matrix(1.6915439,0,0,1.6915439,-57.315564,17.097796)"
       inkscape:export-xdpi="96"
       inkscape:export-ydpi="96">
      <path
         transform="matrix(1.2410076,0,0,1.2410076,-16.851329,-18.354233)"
         inkscape:export-ydpi="96"
         inkscape:export-xdpi="96"
         sodipodi:nodetypes="cssssssssscsccsssssscccccssscsssscssssscccsccsscsccsscsscsssscccccccsscsssccsssscsscsccc"
         inkscape:connector-curvature="0"
         id="path912-3"
         d="m 68.596092,127.89725 c -3.433178,-2.19722 -4.105338,-3.55096 -10.222962,-20.58924 -2.699588,-7.518678 -6.473554,-16.534148 -8.386587,-20.034418 -5.067915,-9.27269 -6.29562,-13.90161 -5.806932,-21.89433 0.746444,-12.20835 8.662247,-24.13915 19.576403,-29.50581 9.611562,-4.72615 22.933842,-2.86973 30.124762,4.19778 2.33803,2.29791 2.43462,2.32082 1.45975,0.34617 -3.59984,-7.29164 11.085164,-10.11157 22.954564,-4.40791 6.27632,3.01598 13.79451,10.92423 16.81295,17.6852 2.04948,4.59062 3.02356,6.51942 3.64901,14.2385 0.1255,1.54885 -0.55223,5.39166 -1.29885,8.79262 L 125.41027,101.6086 c -6.62638,13.68554 -12.83199,25.60147 -13.79025,26.47984 -2.0002,1.83348 -6.55433,2.06024 -8.58064,0.42729 -2.80036,-2.25675 -4.843784,-5.20203 -3.402474,-16.05026 0.947924,-7.13472 0.387144,-15.004118 -4.95204,-17.135948 -6.36716,-2.54229 -10.92911,1.60704 -12.43706,8.457778 -0.27354,1.24267 -0.17226,3.11844 -1.43894,4.15204 -4.77215,3.89408 -1.71056,1.76846 0,3.33783 1.16505,1.06889 1.43894,3.37553 1.43894,7.7986 0,5.29127 -0.29191,6.43608 -2.13412,8.3697 -2.66281,2.79496 -7.55641,2.98691 -11.517594,0.45178 z m 10.859784,-1.67875 c 0.73314,-1.00875 1.03378,-3.75262 0.86945,-7.93532 -0.24441,-6.22139 -0.3155,-6.40119 -2.64216,-6.6822 -2.35496,-0.28442 -1.64989,-0.15134 -2.39101,4.79117 -0.63722,4.24963 -0.41802,5.04721 -1.63245,5.07993 -2.40422,0.0648 -2.918,-0.96325 -8.748225,-16.42685 -2.933266,-7.779938 -7.142473,-17.841378 -9.353802,-22.358758 -3.620633,-7.39638 -4.025527,-8.84891 -4.070235,-14.60165 -0.106766,-13.73652 9.32994,-25.20038 22.573992,-27.42328 7.77454,-1.3049 17.02135,4.69803 19.1312,12.41973 0.67876,2.48414 1.30496,3.13972 2.99899,3.13972 3.13965,0 3.21898,-4.26239 0.18632,-10.0096 -2.79438,-5.29563 -6.50893,-8.17937 -13.14355,-10.20382 -17.451642,-5.3251 -35.949514,9.04402 -37.308572,28.98124 -0.539632,7.91634 0.794507,13.46285 5.025251,20.89177 1.858011,3.26256 5.749041,12.50265 8.64673,20.533568 6.689884,18.54091 6.75879,18.67149 10.912371,20.67988 3.84126,1.85738 7.19827,1.52883 8.94571,-0.87553 z m 30.106034,1.67122 c 1.77933,-0.71007 4.55899,-5.7632 14.18183,-25.78102 l 11.96873,-24.897848 c 0.55493,-3.41211 2.53683,-6.69285 1.30213,-9.40055 1.36235,-6.09552 -1.42263,-10.01033 -4.2508,-15.4846 -5.59152,-10.82312 -14.60278,-16.78559 -26.28286,-17.39053 -7.605694,-0.3939 -10.573694,0.7106 -10.157374,3.77998 0.25145,1.85391 0.75102,1.9941 7.225764,2.02765 8.49464,0.044 14.14118,2.37438 19.38971,8.00226 5.23825,5.61688 7.53482,11.55107 7.48455,19.33976 -0.0408,6.32363 -0.14935,6.6135 -10.73567,28.66728 -7.08987,14.769848 -10.91629,21.844518 -11.35266,20.989848 -0.36202,-0.70904 -0.84273,-5.1928 -1.06825,-9.96388 -0.25116,-5.31383 -0.93649,-9.733508 -1.76887,-11.407538 -7.103134,-14.28546 -25.882824,-12.87571 -29.862514,3.25139 -1.37205,5.560018 -0.46539,8.439428 2.52012,7.988348 1.45692,-0.22012 2.01495,-1.13863 2.49529,-4.10729 1.1325,-6.999318 4.60792,-10.321578 10.79742,-10.321578 1.66803,0 4.01715,0.67699 5.22026,1.50443 3.969274,2.72983 4.706984,5.623158 4.706984,18.461268 0,11.70712 0.0263,11.86461 2.29089,13.73436 2.62043,2.16352 2.88633,2.209 5.8952,1.00826 z M 74.935616,110.43016 c 2.74866,0.2658 5.2155,-0.38587 -0.0563,-2.62801 -1.84554,-1.60767 -1.67496,-7.5934 0.33317,-11.691138 3.20142,-6.53278 9.83213,-11.16574 15.91925,-11.12299 5.98914,0.042 13.579744,5.53286 16.017214,11.58632 0.71758,1.7821 1.18246,6.344118 1.18246,11.603668 v 8.667 l 10.1444,-20.955868 c 11.36009,-23.46715 12.12512,-26.3797 9.45832,-36.00845 -1.13655,-4.10358 -2.47838,-6.33814 -6.06946,-10.10743 -5.52846,-5.80281 -10.92435,-7.83388 -19.8602,-7.47555 -3.213054,0.12883 -5.840034,0.23423 -5.840034,0.23423 0,0 0.97837,2.02028 2.17187,4.48953 2.539334,5.25362 2.708114,7.51907 0.73106,9.8121 -2.90382,3.36792 -6.14275,1.39499 -8.07317,-4.91759 -2.83113,-9.2579 -14.55135,-12.37019 -25.167937,-6.68329 -8.350601,4.47308 -12.59487,12.00664 -12.617414,22.39582 -0.0138,6.3656 0.267033,7.41922 4.01388,15.05795 2.215804,4.51738 6.441414,14.57658 9.390246,22.353788 2.948831,7.7772 5.618905,14.55327 5.933515,15.05794 0.2527,0.38269 0.95367,-0.0311 1.05853,-1.46884 0.041,-0.56222 -0.009,-1.28102 -0.21291,-2.16999 0.15051,-2.50602 0.84506,-5.21915 1.54348,-6.0292 z"
         style="fill:#0b2228;stroke-width:3;stroke-miterlimit:4;stroke-dasharray:none;filter:url(#filter992)" />
      <path
         inkscape:export-ydpi="96"
         inkscape:export-xdpi="96"
         sodipodi:nodetypes="cssssssssscsccsssssscccccssscsssscssssscccsccsscsccsscsscsssscccccccsscsssccsssscsscsccc"
         inkscape:connector-curvature="0"
         id="path912"
         d="M 69.285424,137.30928 C 65.15042,134.66123 64.340852,133.02972 56.972636,112.49543 53.721185,103.43402 49.175728,92.568703 46.871623,88.350241 40.767702,77.174907 39.289024,71.596202 39.877611,61.96349 40.776647,47.250167 50.310636,32.871334 63.455914,26.403514 c 11.576405,-5.695892 27.622084,-3.458571 36.282999,5.059101 2.815977,2.769412 2.932307,2.797014 1.758157,0.417207 -4.335725,-8.787789 13.35125,-12.186328 27.64705,-5.312363 7.55935,3.634827 16.61444,13.165722 20.24993,21.313955 2.46843,5.532555 3.64165,7.857122 4.39495,17.160043 0.15116,1.866649 -0.66512,6.497954 -1.56436,10.596736 l -14.51083,29.988387 c -7.98097,16.49362 -15.45516,30.85453 -16.60932,31.91313 -2.40909,2.20968 -7.89419,2.48298 -10.33474,0.51496 -3.37281,-2.71981 -5.83396,-6.26941 -4.09801,-19.34354 1.1417,-8.59866 0.46628,-18.08274 -5.96435,-20.652002 -7.668776,-3.063938 -13.163298,1.936779 -14.979512,10.193192 -0.329456,1.49765 -0.207473,3.75829 -1.733095,5.00397 -5.747688,4.6931 -2.060228,2.13132 0,4.02271 1.403228,1.28821 1.733095,4.06814 1.733095,9.39877 0,6.37696 -0.35158,7.75667 -2.570384,10.08704 -3.207154,3.36845 -9.101125,3.59979 -13.87207,0.54447 z m 13.079786,-2.02319 c 0.883007,-1.21573 1.245103,-4.52262 1.047196,-9.56354 -0.294388,-7.49794 -0.379998,-7.71463 -3.182295,-8.05329 -2.836366,-0.34278 -1.987155,-0.18241 -2.87978,5.77424 -0.767488,5.1216 -0.503483,6.08283 -1.966163,6.12227 -2.895704,0.0781 -3.514509,-1.16091 -10.536583,-19.79741 C 61.314689,100.39209 56.245017,88.266184 53.581638,82.821899 49.220856,73.907886 48.733192,72.15733 48.679345,65.224207 48.550753,48.669141 59.916554,34.85306 75.86802,32.174046 c 9.363835,-1.572639 20.500932,5.661993 23.042087,14.968086 0.817511,2.993854 1.571723,3.783954 3.612053,3.783954 3.78147,0 3.87702,-5.136979 0.22441,-12.063436 -3.365633,-6.382222 -7.839513,-9.857664 -15.830417,-12.297503 -21.019183,-6.417732 -43.298477,10.899728 -44.93536,34.92778 -0.649945,9.540671 0.956924,16.225234 6.052537,25.178465 2.237833,3.931986 6.924286,15.068018 10.414334,24.746758 8.057461,22.34526 8.140453,22.50262 13.143122,24.92311 4.626519,2.23849 8.669782,1.84253 10.77444,-1.05517 z m 36.26045,2.01412 c 2.14308,-0.85576 5.49096,-6.94572 17.08094,-31.07092 l 14.41544,-30.006525 c 0.66836,-4.112222 3.05542,-8.066144 1.56832,-11.329412 1.64084,-7.346235 -1.71346,-12.064307 -5.11978,-18.661826 -6.73456,-13.04388 -17.58794,-20.229761 -31.65572,-20.958817 -9.16049,-0.474734 -12.7352,0.856404 -12.23379,4.555572 0.30285,2.234312 0.90454,2.403262 8.70288,2.443696 10.23116,0.05304 17.03199,2.861572 23.35345,9.644209 6.30908,6.76939 9.07513,13.921196 9.01458,23.30802 -0.0492,7.621142 -0.17988,7.970486 -12.93031,34.549382 -8.5392,17.800431 -13.14785,26.326721 -13.67341,25.296681 -0.43603,-0.85453 -1.01501,-6.25829 -1.28664,-12.00834 -0.3025,-6.40414 -1.12794,-11.73068 -2.13047,-13.748207 -8.55518,-17.216627 -31.173903,-15.517612 -35.967144,3.918537 -1.652527,6.70085 -0.560528,10.17108 3.035291,9.62745 1.75476,-0.26529 2.426858,-1.37227 3.005384,-4.95006 1.364017,-8.435471 5.549904,-12.439406 13.004693,-12.439406 2.009007,0 4.838336,0.8159 6.287406,1.813109 4.78069,3.289957 5.66919,6.776967 5.66919,22.249267 0,14.10925 0.0317,14.29906 2.75921,16.55246 3.15612,2.60744 3.47637,2.66224 7.10033,1.21513 z M 76.920911,116.2582 c 3.310547,0.32033 6.281666,-0.46505 -0.06776,-3.16724 -2.222814,-1.93755 -2.017363,-9.15145 0.401271,-14.090011 3.855876,-7.873198 11.842074,-13.45678 19.173542,-13.405255 7.213476,0.05067 16.355776,6.668117 19.291526,13.963673 0.86427,2.147763 1.42418,7.645843 1.42418,13.984573 v 10.44535 l 12.21817,-25.255721 c 13.68236,-28.282274 14.60379,-31.792432 11.39183,-43.396872 -1.36889,-4.94558 -2.98502,-7.638642 -7.31021,-12.181332 -6.65861,-6.99346 -13.15755,-9.441272 -23.92011,-9.009432 -3.86988,0.155261 -7.03388,0.282297 -7.03388,0.282297 0,0 1.17838,2.434821 2.61586,5.410716 3.05842,6.331598 3.26171,9.061877 0.88051,11.825406 -3.49743,4.058965 -7.398492,1.681226 -9.723547,-5.926607 C 92.852421,34.58025 78.736303,30.829368 65.949428,37.683123 55.891758,43.074031 50.779856,52.153358 50.752704,64.674261 c -0.01662,7.67174 0.321619,8.941528 4.834415,18.147618 2.66877,5.444283 7.758199,17.567501 11.309845,26.940471 3.551644,9.37298 6.767553,17.53939 7.146463,18.14762 0.304362,0.46122 1.148632,-0.0374 1.274925,-1.77023 0.04939,-0.67758 -0.01104,-1.54386 -0.256433,-2.61523 0.181273,-3.02022 1.017809,-6.29005 1.859004,-7.26631 z"
         style="fill:#aaeeff;stroke-width:1.0732013" />
    </g>
  </g>
</svg>
